<svg width="881" height="684" viewBox="0 0 881 684" fill="none" xmlns="http://www.w3.org/2000/svg">
<path d="M335.889 443C328.418 355.819 427.89 339.5 470.889 409.5C465.393 305.5 302.893 303.5 302.893 451.5C272.893 359 293.393 305.971 409.393 287C450.172 280.33 490.951 215.798 473.853 159.477C473.266 157.542 471.996 155.867 470.18 154.976C443.446 141.859 369.246 153.039 351.393 126.5C292.393 12.9996 87.889 12.5104 2.54871 206C-3.18574 219 2.54846 234 2.54846 234C17.8937 293 192.588 482.874 162.89 122.5C203.39 297 164.39 374.5 71.3896 340C84.3896 600.5 454.89 760 699.89 647C488.39 690.5 346.46 566.363 335.889 443Z" fill="#730E45"/>
<path d="M742.384 0.986357C741.106 0.311149 739.613 0.165922 738.367 0.899877C723.455 9.68991 701.772 66.9883 700.005 91.9573C699.887 93.6361 698.497 94.9684 696.815 94.9324C653.528 94.0072 624.489 94.4694 590.39 120.5C563.699 140.875 552.31 178.321 541.89 191.5C535.755 199.26 522.866 206.063 502.155 212.15C499.398 212.96 497.54 215.584 497.802 218.445C503.403 279.664 525.117 307.232 571.39 316C609.389 323.199 636.659 338.616 647.389 374.5C655.134 400.401 648.588 425.106 637.389 443C647.389 329 497.389 298 470.889 409.5C520.389 344 605.389 364.5 605.389 443C605.389 493 560.388 557 468.888 600.5C803.388 746 993.389 424.5 808.889 157C808.889 108.838 780.391 21.0677 742.384 0.986357Z" fill="#F29F05"/>
<path d="M647.39 12.9996C641.889 15.9996 642.391 67.4983 645.389 85.9983C660.791 81.178 670.186 79.9188 686.659 80.8317C688.204 80.9174 689.575 79.8262 689.845 78.3022C691.644 68.1646 693.735 62.5399 698.889 54.4983C686.889 35.9983 652.891 9.99964 647.39 12.9996Z" fill="#F29F05"/>
</svg>
